#!OML:ASF X:\für Bonn\!DataBase\2005_08_10_Bjorn_Final\c3d\bjorn.ASF
:FULLY-SPECIFIED
:DEGREES
202
root -1.69513 15.8868 11.7741 -174.169 36.6221 187.126
lowerback 3.91667 3.67759 9.49376
upperback 7.94817 5.49284 3.64072
thorax 6.69505 3.46956 -1.26625
lowerneck -12.172 5.7873 8.97865
upperneck -6.29117 7.66069 -20.1902
head 1.42491 3.9551 -7.26603
rclavicle 6.52014e-014 1.59028e-015
rhumerus 56.9531 28.348 -66.402
rradius 98.3546
rwrist 32.2022
rhand -56.9324 17.1446
rfingers 7.12502
rthumb -29.227 -10.5799
lclavicle 6.52014e-014 1.59028e-015
lhumerus 34.6469 -28.2182 77.9879
lradius 106.85
lwrist 44.8726
lhand -54.6095 -5.11972
lfingers 7.12502
lthumb -27.0066 22.9697
rfemur 523.074 -190.493 -522.377
rtibia 72.6772
rfoot -41.1976 10.4977
rtoes -40.7688
lfemur 308.309 -5.18404 363.059
ltibia 73.7511
lfoot -16.9837 2.91608
ltoes -37.6353
203
root -1.6971 15.9087 11.6335 -174.089 37.0747 186.936
lowerback 3.71947 3.87427 9.35279
upperback 7.71961 5.71127 3.71406
thorax 6.55747 3.54225 -1.10623
lowerneck -11.9944 5.7797 8.9193
upperneck -6.18783 7.674 -20.227
head 1.4281 3.96313 -7.26852
rclavicle -1.48691e-013 9.54166e-014
rhumerus 56.3922 28.4213 -66.5334
rradius 98.8612
rwrist 32.2172
rhand -57.5567 17.3124
rfingers 7.12502
rthumb -29.8229 -10.3068
lclavicle -1.48691e-013 9.54166e-014
lhumerus 34.9166 -28.1543 77.259
lradius 107.213
lwrist 45.3506
lhand -55.2567 -4.47684
lfingers 7.12502
lthumb -27.6256 23.515
rfemur 523.588 -190.869 -522.872
rtibia 71.9724
rfoot -41.1542 10.2379
rtoes -41.3601
lfemur 308.613 -5.22934 362.49
ltibia 74.0394
lfoot -17.5886 3.74097
ltoes -38.0742
204
root -1.69854 15.944 11.4914 -174.082 37.5365 186.724
lowerback 3.47964 4.06269 9.2355
upperback 7.56551 5.917 3.76069
thorax 6.52886 3.61921 -0.975921
lowerneck -11.9381 5.77418 8.84095
upperneck -6.02708 7.69549 -20.2459
head 1.46674 3.96747 -7.25758
rclavicle 7.196e-014 -1.59028e-014
rhumerus 55.9501 28.4736 -66.6065
rradius 99.3058
rwrist 32.3011
rhand -58.2407 17.2824
rfingers 7.12502
rthumb -30.4754 -10.2178
lclavicle 7.196e-014 -1.59028e-014
lhumerus 35.2974 -28.0772 76.5962
lradius 107.502
lwrist 45.8292
lhand -55.9737 -3.65404
lfingers 7.12502
lthumb -28.3111 24.2261
rfemur 524.258 -191.226 -523.383
rtibia 71.0623
rfoot -41.0153 10.057
rtoes -41.781
lfemur 309.093 -5.32403 361.875
ltibia 74.1577
lfoot -18.1299 4.60265
ltoes -38.621
205
root -1.69917 15.9928 11.3484 -174.098 37.9815 186.518
lowerback 3.22469 4.24926 9.13777
upperback 7.42265 6.11992 3.79468
thorax 6.52384 3.69792 -0.865813
lowerneck -11.8944 5.75784 8.78163
upperneck -5.84364 7.70068 -20.262
head 1.51217 3.9609 -7.24983
rclavicle -9.54166e-015 -3.33958e-014
rhumerus 55.7236 28.4883 -66.6135
rradius 99.4912
rwrist 32.3959
rhand -59.0235 17.1497
rfingers 7.12502
rthumb -31.2217 -10.2092
lclavicle -9.54166e-015 -3.33958e-014
lhumerus 35.7231 -28.0502 76.0246
lradius 107.745
lwrist 46.3343
lhand -56.7702 -2.84512
lfingers 7.12502
lthumb -29.0721 24.9062
rfemur 525.044 -191.568 -523.871
rtibia 69.9447
rfoot -40.7162 10.1394
rtoes -41.7609
lfemur 309.695 -5.39414 361.237
ltibia 74.1091
lfoot -18.5876 5.41258
ltoes -39.1839
206
root -1.69922 16.057 11.2064 -174.084 38.3935 186.335
lowerback 2.94288 4.42636 9.10536
upperback 7.24996 6.30615 3.78184
thorax 6.51374 3.77088 -0.838669
lowerneck -11.7882 5.74149 8.78231
upperneck -5.68326 7.69218 -20.2627
head 1.54023 3.94847 -7.25057
rclavicle 2.94201e-014 -6.99722e-014
rhumerus 55.6666 28.4674 -66.6251
rradius 99.4573
rwrist 32.6337
rhand -59.8982 16.7257
rfingers 7.12502
rthumb -32.0549 -10.4692
lclavicle 2.94201e-014 -6.99722e-014
lhumerus 36.1134 -28.0292 75.4562
lradius 108.014
lwrist 46.9338
lhand -57.6213 -2.0677
lfingers 7.12502
lthumb -29.8846 25.5404
rfemur 525.886 -191.84 -524.341
rtibia 68.616
rfoot -40.2386 10.52
rtoes -41.3226
lfemur 310.362 -5.45747 360.618
ltibia 73.885
lfoot -18.9952 6.08807
ltoes -39.4177
